<?xml version="1.0" encoding="utf-8"?>
<!-- Generator: Adobe Illustrator 24.2.0, SVG Export Plug-In . SVG Version: 6.00 Build 0)  -->
<svg version="1.1" id="Layer_1" xmlns="http://www.w3.org/2000/svg" xmlns:xlink="http://www.w3.org/1999/xlink" x="0px" y="0px"
	 viewBox="0 0 58.4 58.4" style="enable-background:new 0 0 58.4 58.4;" xml:space="preserve">
<style type="text/css">
	.st0{fill:url(#SVGID_1_);}
	.st1{fill:#FFFFFF;}
	.st2{opacity:0.35;fill:none;stroke:url(#SVGID_2_);stroke-miterlimit:10;enable-background:new    ;}
</style>
<g>
	<g id="Capa_1">
		
			<linearGradient id="SVGID_1_" gradientUnits="userSpaceOnUse" x1="10.3295" y1="63.4609" x2="48.0305" y2="-1.8209" gradientTransform="matrix(1 0 0 -1 0 60)">
			<stop  offset="0" style="stop-color:#12EEF2"/>
			<stop  offset="1" style="stop-color:#340DB3"/>
		</linearGradient>
		<path class="st0" d="M5.9,0h46.6c3.3,0,5.9,2.6,5.9,5.9v46.6c0,3.3-2.6,5.9-5.9,5.9H5.9c-3.3,0-5.9-2.6-5.9-5.9V5.9
			C0,2.6,2.6,0,5.9,0z"/>
		<path class="st1" d="M9.5,35.4V18.9c0-0.6,0.1-1,0.3-1.2c0.4-0.2,0.9-0.3,1.4-0.3h9.6c0.2,0,0.4,0.1,0.5,0.3
			c0.2,0.2,0.2,0.4,0.2,0.7c0,0.7-0.5,1-1.6,1h-7.5c-0.2,0-0.3,0-0.5,0c-0.1,0.1-0.1,0.2-0.1,0.4v5.1c0,0.2,0,0.4,0.1,0.6
			c0.1,0.1,0.2,0.1,0.6,0.1h6.8c1,0,1.5,0.4,1.5,1.1s-0.5,1-1.5,1h-6.8c-0.2,0-0.4,0-0.6,0.1c-0.1,0.1-0.1,0.2-0.1,0.5v5.3
			c0,0.6,0.2,0.9,0.7,0.9h7.7c0.4,0,0.8,0,1.2,0.2c0.2,0.2,0.4,0.5,0.3,0.8c0,0.3-0.1,0.6-0.3,0.8c-0.3,0.2-0.6,0.3-0.9,0.3h-9.3
			c-0.4,0-0.9,0-1.3-0.1c-0.2-0.1-0.4-0.4-0.4-0.7L9.5,35.4z"/>
		<path class="st1" d="M24.3,17.5h11.3c0.5,0.1,0.7,0.4,0.7,1c0,0.2,0,0.3-0.1,0.5c-0.2,0.4-0.6,0.6-1.2,0.6h-3.7
			c-0.3,0-0.6,0.2-0.6,0.5c0,0,0,0.1,0,0.1v15.7c0.1,0.5-0.2,1-0.6,1.3c-0.2,0.1-0.4,0.2-0.6,0.2c-0.5,0-1-0.3-1.1-0.8V20
			c0-0.3-0.2-0.5-0.5-0.5h-4.2c-0.2,0-0.5-0.2-0.6-0.4c-0.2-0.2-0.2-0.5-0.2-0.7C22.9,17.8,23.3,17.5,24.3,17.5z"/>
		<path class="st1" d="M37.4,29.7c-0.1-1.8,0.2-3.7,1-5.3c0.8-1.2,2.1-1.9,3.5-2.1l0.5-0.1c0.2,0,0.4,0,0.6,0c0.3,0,0.5,0,0.8,0
			c0.1,0,0.3,0.1,0.4,0.1c1.5,0.2,2.8,1.1,3.5,2.4c0.6,1.3,0.9,3.5,0.9,6.6c0.1,1.4-0.3,2.8-1.1,4c-0.8,1-2,1.6-3.3,1.8
			c-0.4,0.1-0.8,0.1-1.2,0.1h-0.7l-0.5-0.1c-1.4-0.2-2.6-0.9-3.4-2.1C37.6,33.3,37.3,31.5,37.4,29.7z M39.5,29.7v0.9
			c-0.1,1.3,0.2,2.5,0.9,3.6c0.6,0.8,1.6,1.2,2.6,1.1c1,0.1,2-0.3,2.6-1.1c0.7-1.1,1-2.4,0.9-3.6v-1.8c0.1-1.3-0.2-2.5-0.9-3.6
			C45,24.4,44,23.9,43,24c-1-0.1-2,0.3-2.6,1.1c-0.7,1.1-1,2.3-0.9,3.6L39.5,29.7z"/>
		<circle class="st1" cx="47" cy="8.3" r="2.2"/>
		
			<linearGradient id="SVGID_2_" gradientUnits="userSpaceOnUse" x1="24.4962" y1="17.683" x2="33.8738" y2="1.437" gradientTransform="matrix(1 0 0 -1 0 60)">
			<stop  offset="0" style="stop-color:#FFFFFF"/>
			<stop  offset="1" style="stop-color:#000000"/>
		</linearGradient>
		<line class="st2" x1="11.3" y1="50.4" x2="47.1" y2="50.4"/>
	</g>
</g>
</svg>
