<svg id="Layer_1" data-name="Layer 1" xmlns="http://www.w3.org/2000/svg" xmlns:xlink="http://www.w3.org/1999/xlink" viewBox="0 0 58.37 58.37"><defs><style>.cls-1{fill:url(#linear-gradient);}.cls-2{fill:#fff;}.cls-3{fill:none;stroke-miterlimit:10;opacity:0.35;isolation:isolate;stroke:url(#linear-gradient-2);}</style><linearGradient id="linear-gradient" x1="10.33" y1="63.46" x2="48.03" y2="-1.82" gradientTransform="matrix(1, 0, 0, -1, 0, 60)" gradientUnits="userSpaceOnUse"><stop offset="0" stop-color="#12eef2"/><stop offset="1" stop-color="#340db3"/></linearGradient><linearGradient id="linear-gradient-2" x1="24.5" y1="17.68" x2="33.87" y2="1.44" gradientTransform="matrix(1, 0, 0, -1, 0, 60)" gradientUnits="userSpaceOnUse"><stop offset="0" stop-color="#fff"/><stop offset="1"/></linearGradient></defs><g id="Capa_1" data-name="Capa 1"><rect class="cls-1" x="0.01" y="0.01" width="58.34" height="58.34" rx="5.89"/><path class="cls-2" d="M9.46,35.38V18.93a1.76,1.76,0,0,1,.28-1.2,2.32,2.32,0,0,1,1.39-.26h9.59a.67.67,0,0,1,.53.29,1.08,1.08,0,0,1,.23.69q0,1.05-1.65,1.05H12.3a1.34,1.34,0,0,0-.49.05c-.08.06-.11.2-.11.44v5.13a1.6,1.6,0,0,0,.08.65c.05.07.24.11.57.11h6.83c1,0,1.54.36,1.54,1.08s-.51,1-1.54,1H12.43a1.46,1.46,0,0,0-.62.08c-.08.06-.11.24-.11.54v5.33c0,.63.24.94.73.94h7.72a2.66,2.66,0,0,1,1.22.2.82.82,0,0,1,.32.77,1,1,0,0,1-.32.79,1.34,1.34,0,0,1-.92.29H11.13a3.62,3.62,0,0,1-1.27-.13.83.83,0,0,1-.4-.65Z"/><path class="cls-2" d="M24.31,17.47H35.58c.47.06.7.39.7,1a1.25,1.25,0,0,1-.11.5c-.16.37-.56.56-1.21.56h-3.7a.53.53,0,0,0-.6.45.33.33,0,0,0,0,.14v15.7a1.33,1.33,0,0,1-.58,1.27,1.46,1.46,0,0,1-.61.16,1,1,0,0,1-1.08-.84V20q0-.48-.54-.48H23.67a.83.83,0,0,1-.6-.36,1.09,1.09,0,0,1-.21-.74C22.86,17.79,23.34,17.47,24.31,17.47Z"/><path class="cls-2" d="M37.39,29.66a10.56,10.56,0,0,1,1-5.34,4.81,4.81,0,0,1,3.46-2.09l.54-.07a3.21,3.21,0,0,1,.62,0,4.73,4.73,0,0,1,.75.05,3,3,0,0,0,.42.06,4.48,4.48,0,0,1,3.48,2.42c.63,1.33,1,3.53.94,6.6a6.39,6.39,0,0,1-1.09,4,5.25,5.25,0,0,1-3.33,1.79,5.78,5.78,0,0,1-1.17.1h-.7l-.46-.1A4.84,4.84,0,0,1,38.41,35,10.58,10.58,0,0,1,37.39,29.66Zm2.13,0v.89a5.87,5.87,0,0,0,.87,3.63A3.13,3.13,0,0,0,43,35.28a3.16,3.16,0,0,0,2.62-1.1,6,6,0,0,0,.86-3.63V28.74a5.88,5.88,0,0,0-.86-3.61A3.17,3.17,0,0,0,43,24a3.12,3.12,0,0,0-2.62,1.09,5.88,5.88,0,0,0-.87,3.61Z"/><circle class="cls-2" cx="46.97" cy="8.28" r="2.18"/><line class="cls-3" x1="11.29" y1="50.44" x2="47.08" y2="50.44"/></g></svg>