<svg id="Layer_1" data-name="Layer 1" xmlns="http://www.w3.org/2000/svg" viewBox="0 0 100 100"><defs><style>.cls-1{fill:#dadada;}.cls-2{fill:#8294ba;}.cls-3{fill:#414e72;}.cls-4{fill:#f2f7fd;}</style></defs><path class="cls-1" d="M100,10.28V89.72A10.28,10.28,0,0,1,89.72,100H10.28A10.28,10.28,0,0,1,0,89.72V10.28A10.28,10.28,0,0,1,10.28,0H89.72A10.28,10.28,0,0,1,100,10.28Z"/><path class="cls-2" d="M100,27.91V89.72A10.28,10.28,0,0,1,89.72,100H10.18a6.69,6.69,0,0,1-5.81-9.58c7.37-15.64,22.25-45,30.53-45.51,11.31-.73,19.91,15.53,29.54,14.2S79,16.35,87.54,15.54,100,27.91,100,27.91Z"/><path class="cls-3" d="M37.22,51.59H27.8V58H38.85V61.9h-16V38.1H38.82v4h-11v5.68h9.42Z"/><path class="cls-3" d="M60,42.07H52.67V61.9h-4.9V42.07H40.58v-4H60Z"/><path class="cls-3" d="M81.84,50.54A14.32,14.32,0,0,1,80.6,56.7a9.36,9.36,0,0,1-3.55,4.09,10.53,10.53,0,0,1-10.58,0,9.44,9.44,0,0,1-3.6-4.06,13.93,13.93,0,0,1-1.29-6.07V49.49a14.19,14.19,0,0,1,1.27-6.18,9.34,9.34,0,0,1,3.58-4.1,10.48,10.48,0,0,1,10.57,0,9.46,9.46,0,0,1,3.58,4.1,14.32,14.32,0,0,1,1.26,6.17Zm-5-1.08a10.07,10.07,0,0,0-1.34-5.69,4.74,4.74,0,0,0-7.63,0,9.84,9.84,0,0,0-1.36,5.63v1.16a10.15,10.15,0,0,0,1.34,5.65,4.7,4.7,0,0,0,7.65.08,10.11,10.11,0,0,0,1.34-5.65Z"/><path class="cls-4" d="M47,86.07h0l-.12-.18-3.22-5.1L40.45,85.9l-.1.16h0a3.32,3.32,0,0,0-.46,1.67,2.71,2.71,0,0,0,0,.29,3.84,3.84,0,0,0,7.56,0c0-.11,0-.22,0-.34A3.32,3.32,0,0,0,47,86.07Z"/><path class="cls-4" d="M59.5,86.07h0l-.11-.18-3.23-5.1L52.94,85.9l-.1.16h0a3.32,3.32,0,0,0-.46,1.67,2.64,2.64,0,0,0,0,.29,3.83,3.83,0,0,0,7.55,0c0-.11,0-.22,0-.34A3.32,3.32,0,0,0,59.5,86.07Z"/><path class="cls-4" d="M40.81,74.41h0l-.11-.17-3.22-5.11-3.23,5.11-.1.16h0a3.32,3.32,0,0,0-.46,1.67c0,.1,0,.2,0,.3a3.83,3.83,0,0,0,7.55,0c0-.11,0-.22,0-.34A3.26,3.26,0,0,0,40.81,74.41Z"/><path class="cls-4" d="M53.34,74.41h0l-.11-.17L50,69.12l-3.23,5.11-.1.16h0a3.23,3.23,0,0,0-.46,1.67c0,.1,0,.2,0,.3a3.83,3.83,0,0,0,7.55,0,1.88,1.88,0,0,0,0-.34A3.25,3.25,0,0,0,53.34,74.41Z"/><path class="cls-4" d="M65.86,74.41h0l-.12-.17-3.22-5.11L59.3,74.23l-.11.16h0a3.32,3.32,0,0,0-.46,1.67c0,.1,0,.2,0,.3a3.84,3.84,0,0,0,7.56,0c0-.11,0-.22,0-.34A3.26,3.26,0,0,0,65.86,74.41Z"/></svg>